<?xml version="1.0" encoding="utf-8"?>
<!-- Generator: Adobe Illustrator 27.0.1, SVG Export Plug-In . SVG Version: 6.00 Build 0)  -->
<svg version="1.1" id="레이어_1" xmlns="http://www.w3.org/2000/svg" xmlns:xlink="http://www.w3.org/1999/xlink" x="0px"
	 y="0px" viewBox="0 0 400 550" style="enable-background:new 0 0 400 550;" xml:space="preserve">
<style type="text/css">
	.st0{display:none;fill:#F9F9F9;stroke:#F4D3CB;stroke-width:3;stroke-miterlimit:10;}
	.st1{fill:#FFF8EE;stroke:#F4D3CB;stroke-width:3;stroke-miterlimit:10;}
	.st2{fill:none;stroke:#F4D3CB;stroke-miterlimit:10;}
	.st3{fill:#FFF8EE;stroke:#F6D4CB;stroke-width:3;stroke-miterlimit:10;}
	.st4{fill:#FFF7ED;stroke:#F2D1C8;stroke-width:3;stroke-miterlimit:10;}
	.st5{display:none;fill:#FFF7ED;stroke:#F2D1C8;stroke-width:3;stroke-miterlimit:10;}
	.st6{display:none;}
	.st7{display:inline;fill:#FFF7ED;stroke:#F2D1C8;stroke-width:3;stroke-miterlimit:10;}
</style>
<path class="st0" d="M194.9,76.81c0.92-1.3,2.38-2.63,2.92-4.26c3.06-9.32,10.78-12.22,18.93-11.32c10.71,1.18,17.83-4.7,25.5-9.9
	c1.65-1.12,2.45-3.79,3.2-5.9c2.68-7.47,7.59-12.76,14.43-16.76c22.39-13.09,46.6-14.72,71.44-11.19c4.59,0.65,9.49,3.63,12.92,6.92
	c8.63,8.28,16.62,17.24,24.63,26.15c6.25,6.95,9,15.25,6.94,24.5c-2.19,9.83-4.91,19.55-7.49,29.29
	c-2.41,9.12-0.05,16.56,7.43,22.38c6.47,5.03,10.01,11.4,10.58,19.85c0.36,5.33,2.09,10.71,4.02,15.76
	c3.37,8.84,2.25,17.52-0.59,25.94c-3.31,9.79-10.26,16.32-20.66,18.38c-4.87,0.96-7.48,3.7-9.44,8.16
	c-2.26,5.14-6.07,9.62-8.16,14.81c-2.71,6.73-5.37,13.74-6.28,20.86c-1.75,13.67-6.99,20.69-20.49,24.64
	c-1.94,0.57-3.79,1.45-7.15,2.75c12.52,8.03,11.7,19.48,10.86,30.96c-0.38,5.24-0.89,10.49-0.94,15.74
	c-0.09,8.93-4.08,15.79-10.97,20.97c-9.4,7.07-18.73,14.3-28.68,20.51c-5.93,3.7-12.85,6.06-19.6,8.14
	c-5.76,1.77-12.64-2.18-14.64-8.15c-1.8-5.34-2.9-10.96-3.85-16.53c-2.36-13.88-9.38-19.15-23.08-15.63
	c-11.14,2.86-22.16,6.5-32.85,10.74c-9.88,3.92-15.02,11.61-14.28,22.78c0.78,11.69,0.46,23.24-7.67,32.9
	c-0.41,0.48-0.64,1.21-1.13,1.5c-10.77,6.25-10.37,17.1-11.44,27.4c-1.66,15.99-4.77,19.63-20.95,22.61
	c-9.68,1.78-19.52,3.02-29.34,3.62c-8.63,0.52-16.39,2.57-23.75,7.21c-14.84,9.37-30.86,16.17-48.12,19.62
	c-2.96,0.59-6.29-0.65-9.45-1.05c0.54-3.17,0.21-6.9,1.8-9.41c3.47-5.45,7.64-10.55,12.06-15.28c4.77-5.11,5.17-10.85,2.2-16.27
	c-5.75-10.47-12.14-20.6-18.64-30.63c-4.57-7.04-9.82-13.64-14.66-20.51c-1.32-1.88-2.45-3.94-3.38-6.05
	c-4.29-9.79,0.53-16.9,10.98-15.17c7.81,1.3,15.23,4.77,23.01,6.42c7.11,1.5,14.47,2.52,21.7,2.45c3.86-0.04,8.14-2.21,11.46-4.53
	c7.91-5.52,8.75-12.07,2.2-19.13c-4.68-5.04-10.39-9.13-15.7-13.57c-3.86-3.24-8.08-6.1-11.68-9.6
	c-11.91-11.55-12.61-18.66-7.1-32.93c4.26-11.05,11.06-21.17,17.15-31.45c5.06-8.54,13.17-12.92,22.88-13.79
	c9.83-0.88,19.75-1.65,29.59-1.38c7.48,0.2,9.69-5.73,13.71-9.59c0.6-0.57-0.21-3.19-0.98-4.51c-6.48-11.2-14.79-19.9-27.74-24.18
	c-14.11-4.66-28.32-7.57-43.15-7.79c-2.28-0.03-4.59-0.53-6.81-1.1c-10.03-2.57-13.87-11.07-7.73-19.51
	c8.02-11.01,11.64-23.55,15.19-36.26c6.6-23.63,21.89-39.19,44.52-47.89c8.63-3.31,11.23-1.09,17.54,5.57
	c11.48,12.13,9.99,25.28,6.06,39.31c-1.85,6.61-0.75,7.57,5.95,8.06c4.05,0.3,8.27,1.23,11.92,2.92c3.44,1.6,5.56,1.27,7.38-1.79
	c2.12-3.59,3.87-7.42,6.23-10.83c3.81-5.5,7.95-10.78,12.03-16.08c12.53-16.27,11.91-34.71,9.29-53.64
	c-0.52-3.78,0.71-7.8,1.13-11.71c3.19,2.08,6.67,3.85,9.5,6.34c2.8,2.45,4.93,5.65,7.4,8.49C193.3,76.49,193.84,76.48,194.9,76.81z"
	/>
<path class="st1" d="M194.9,76.81c0.92-1.3,2.38-2.63,2.92-4.26c3.06-9.32,10.78-12.22,18.93-11.32c10.71,1.18,17.83-4.7,25.5-9.9
	c1.65-1.12,2.45-3.79,3.2-5.9c2.68-7.47,7.59-12.76,14.43-16.76c22.39-13.09,46.6-14.72,71.44-11.19c4.59,0.65,9.49,3.63,12.92,6.92
	c8.63,8.28,16.62,17.24,24.63,26.15c6.25,6.95,9,15.25,6.94,24.5c-2.19,9.83-4.91,19.55-7.49,29.29
	c-2.41,9.12-0.05,16.56,7.43,22.38c6.47,5.03,10.01,11.4,10.58,19.85c0.36,5.33,2.09,10.71,4.02,15.76
	c3.37,8.84,2.25,17.52-0.59,25.94c-3.31,9.79-10.26,16.32-20.66,18.38c-4.87,0.96-7.48,3.7-9.44,8.16
	c-2.26,5.14-6.07,9.62-8.16,14.81c-2.71,6.73-5.37,13.74-6.28,20.86c-1.75,13.67-6.99,20.69-20.49,24.64
	c-1.94,0.57-3.79,1.45-7.15,2.75c12.52,8.03,11.7,19.48,10.86,30.96c-0.38,5.24-0.89,10.49-0.94,15.74
	c-0.09,8.93-4.08,15.79-10.97,20.97c-9.4,7.07-18.73,14.3-28.68,20.51c-5.93,3.7-12.85,6.06-19.6,8.14
	c-5.76,1.77-12.64-2.18-14.64-8.15c-1.8-5.34-2.9-10.96-3.85-16.53c-2.36-13.88-9.38-19.15-23.08-15.63
	c-11.14,2.86-22.16,6.5-32.85,10.74c-9.88,3.92-15.02,11.61-14.28,22.78c0.78,11.69,0.46,23.24-7.67,32.9
	c-0.41,0.48-0.64,1.21-1.13,1.5c-10.77,6.25-10.37,17.1-11.44,27.4c-1.66,15.99-4.77,19.63-20.95,22.61
	c-9.68,1.78-19.52,3.02-29.34,3.62c-8.63,0.52-16.39,2.57-23.75,7.21c-14.84,9.37-30.86,16.17-48.12,19.62
	c-2.96,0.59-6.29-0.65-9.45-1.05c0.54-3.17,0.21-6.9,1.8-9.41c3.47-5.45,7.64-10.55,12.06-15.28c4.77-5.11,5.17-10.85,2.2-16.27
	c-5.75-10.47-12.14-20.6-18.64-30.63c-4.57-7.04-9.82-13.64-14.66-20.51c-1.32-1.88-2.45-3.94-3.38-6.05
	c-4.29-9.79,0.53-16.9,10.98-15.17c7.81,1.3,15.23,4.77,23.01,6.42c7.11,1.5,14.47,2.52,21.7,2.45c3.86-0.04,8.14-2.21,11.46-4.53
	c7.91-5.52,8.75-12.07,2.2-19.13c-4.68-5.04-10.39-9.13-15.7-13.57c-3.86-3.24-8.08-6.1-11.68-9.6
	c-11.91-11.55-12.61-18.66-7.1-32.93c4.26-11.05,11.06-21.17,17.15-31.45c5.06-8.54,13.17-12.92,22.88-13.79
	c9.83-0.88,19.75-1.65,29.59-1.38c7.48,0.2,9.69-5.73,13.71-9.59c0.6-0.57-0.21-3.19-0.98-4.51c-6.48-11.2-14.79-19.9-27.74-24.18
	c-14.11-4.66-28.32-7.57-43.15-7.79c-2.28-0.03-4.59-0.53-6.81-1.1c-10.03-2.57-13.87-11.07-7.73-19.51
	c8.02-11.01,11.64-23.55,15.19-36.26c6.6-23.63,21.89-39.19,44.52-47.89c8.63-3.31,11.23-1.09,17.54,5.57
	c11.48,12.13,9.99,25.28,6.06,39.31c-1.85,6.61-0.75,7.57,5.95,8.06c4.05,0.3,8.27,1.23,11.92,2.92c3.44,1.6,5.56,1.27,7.38-1.79
	c2.12-3.59,3.87-7.42,6.23-10.83c3.81-5.5,7.95-10.78,12.03-16.08c12.53-16.27,11.91-34.71,9.29-53.64
	c-0.52-3.78,0.71-7.8,1.13-11.71c3.19,2.08,6.67,3.85,9.5,6.34c2.8,2.45,4.93,5.65,7.4,8.49C193.3,76.49,193.84,76.48,194.9,76.81z"
	/>
<g id="레이어_2">
	<path class="st2" d="M146.14,156.27l4.55,3.25h3.36l45.97,0.54l6.61,3.25h8.02c0,0,3.47-0.65,3.58,2.6c0.11,3.25,0,4.77,0,4.77
		l3.04,2.28l4.55-2.06l5.42,1.19l2.6,1.41l5.42,0.65l6.83-2.71c0,0,0.81-6.34,10.73-11.71c9.92-5.37,8.13-30,8.13-30l0.13-16.61
		c0,0-0.88-11.93-6.41-25.69c0,0-1.44-2.9-0.54-4.69s2.11-4.07,0.89-8.37c-1.22-4.31-6.1-12.28-6.1-12.28l-8.94-11.22"/>
	<path class="st2" d="M123.16,233.32l-3.25-12.2l-1.06-17.24l1.22-9.84l2.2-5.53c0,0,3.66-5.04,12.03-1.3c0,0,5.31,1.79,11.84-2.36
		c6.53-4.15,14.74-2.14,14.74-2.14c-0.6-0.76,1.3-8.89,1.3-8.89l8.29-14.42"/>
	<path class="st2" d="M220.62,172.48c0,0-7.16,9.11-8.24,22.5l-11.06,1.68c0,0-12.96,3.41-22.66-2.39s-11.98-8.27-13.28-9.2
		c-1.3-0.93-4.5-2.34-4.5-2.34"/>
	<path class="st2" d="M125.11,236.49l14.04,4.61c0,0,12.2,7.21,20,18.92l28.08,28.4c0,0,3.58,4.44,7.7,0.76l6.5-4.66
		c0,0,7.16-7.48,8.13-11.6s7.26-9.35,7.26-9.35s7.07-7.24,14.96-7.64c7.89-0.41,22.03,0.81,22.03,0.81l28.86,4.31
		c0,0,3.74-1.79,34.15,17.56"/>
	<path class="st2" d="M212.38,194.97l3.69,2.68v4.48l-11.27,17.67c0,0-4.23,4.99,0,10.3c4.23,5.31,24.07,25.98,26.46,25.87
		c2.39-0.11,8.88-13.73,8.88-13.73l6.07-19.84v-11.06c0,0,1.19-12.47,11.06-22.87c0,0,13.66-7.59,28.73-9.87
		c15.07-2.28,19.95-1.63,19.95-1.63s7.48,4.99,16.48,15.83c0,0,3.14,2.17,7.05,2.6c3.9,0.43,7.37-0.43,14.64-0.43
		c0,0,7.37,1.52,10.62,7.05c0,0,4.66,4.55,9,6.83"/>
	<path class="st2" d="M216.06,198.71c16.91,3.52,15.39,3.2,15.39,3.2s5.8,2.26,16.83,1.18"/>
	<path class="st2" d="M245.71,171.12c4.28,6.07,8.94,13.28,8.94,13.28s0.62,1.69,3.46,3.61"/>
</g>
<path class="st3" d="M220.3,403.37c-2.2,0.83-6.63,11.77-6.63,11.77l-1.71,4.49l-1.71,1.28l1.28,5.99l-1.28,3.42l6.42,8.13
	l1.71,7.49l19.26,9.84l4.49,10.7l-3.64,4.71l1.28,15.41l6.85,11.55l-1.5,2.35l0.21,6.42l-3.85,8.56l-1.71,1.93l0.21,4.28l4.71,1.5
	l-4.07,8.13l3.42,3.42l-0.86,1.5h12.41l16.26-11.34l3.21-0.64l3.64-0.86c0,0,3.42-10.91,14.34-8.77l9.41-3.42c0,0,2.35-3,2.57-8.13
	l8.13-11.77v-7.06l6.63-4.07V469.8c0,0,2.21-6.1,17.05-4.81c0,0,2.85-3.42,10.56-2.14l8.99-1.28v-1.71l-4.71-1.71l2.35-6.42
	l2.35-3.21c0,0-2.35-8.13-5.78-5.99l-2.14-5.99c0,0,2.35-3.21,5.14-10.06l-0.43-4.07c0,0-5.99-2.78-9.63-1.93
	c-3.64,0.86-2.35,0.21-2.35,0.21l-1.71-5.35c0,0-3.85-8.77-4.49-8.77c-0.64,0-4.49-3.21-8.56-2.14s-1.07-1.07-1.07-1.07l-3.42-2.35
	l-3.42,2.14l-3,4.28l-1.5,1.5c0,0-6.85-1.71-7.92,0c-1.07,1.71-1.93,0.21-1.93,0.21l-4.28-0.43c0,0-0.64-2.57-4.07-1.93l-7.06-5.78
	l-0.43-2.35l-9.2,5.35c0,0-6.63,3.85-6.2,5.56l-8.99,1.93c0,0-5.56-8.13-12.62-2.78C251.33,408.72,225.44,401.44,220.3,403.37z"/>
<g>
	<path class="st4" d="M170.48,457.04c-21.7,0-39.29,17.59-39.29,39.29c0,21.7,17.59,39.29,39.28,39.29
		c21.7,0,39.29-17.59,39.29-39.29C209.76,474.63,192.17,457.04,170.48,457.04z"/>
	<path class="st5" d="M170.48,456.41L170.48,456.41c-22.01,0-39.92,17.91-39.92,39.91c0,22.01,17.9,39.91,39.91,39.91
		c22.01,0,39.91-17.9,39.91-39.91C210.39,474.32,192.49,456.41,170.48,456.41L170.48,456.41z M131.82,496.33
		c0-21.31,17.34-38.66,38.66-38.66c21.32,0,38.66,17.34,38.66,38.66c0,21.32-17.34,38.66-38.66,38.66
		C149.16,534.99,131.82,517.64,131.82,496.33z"/>
	<path class="st5" d="M149.06,474.92c-5.71,5.71-8.86,13.32-8.86,21.4c0,16.69,13.58,30.28,30.27,30.28
		c16.69,0,30.27-13.58,30.27-30.28c0-16.69-13.58-30.27-30.28-30.27C162.39,466.05,154.78,469.2,149.06,474.92z M141.46,496.33
		c0-7.75,3.02-15.04,8.49-20.52c5.48-5.48,12.77-8.5,20.52-8.5c16,0,29.03,13.02,29.03,29.02c0,16-13.02,29.03-29.02,29.03
		C154.48,525.35,141.46,512.33,141.46,496.33z"/>
	<g class="st6">
		<path class="st7" d="M133.14,493.49c-0.01,0.09-0.1,2.96-0.1,2.96c-0.03,0.81,0.21,1.48,0.69,1.99l0.09,0.08
			c0.52,0.51,1.27,0.78,2.22,0.81c1.05,0.03,1.85-0.26,2.36-0.87l0,0c0.38-0.43,0.57-0.95,0.59-1.54c0,0,0.09-3.17,0.09-3.26
			C139,493.67,133.22,493.49,133.14,493.49z M138.21,496.02c-0.01,0.69-0.28,1.2-0.78,1.49c-0.37,0.21-0.83,0.31-1.41,0.29
			c-0.62-0.02-1.12-0.16-1.49-0.43c-0.47-0.33-0.7-0.84-0.67-1.53c0,0,0.03-0.39,0.03-0.39l0.05-0.42c0.01-0.06,0.06-0.1,0.12-0.1
			l4.08,0.13c0.06,0,0.11,0.06,0.11,0.12L138.21,496.02z"/>
		<path class="st7" d="M139.46,501.43c-0.06,0-6.19-0.96-6.3-0.98c0.02,0.1,0.17,0.78,0.18,0.83c0.06,0.01,1.62,0.25,1.62,0.25
			l0.05,0.08l0.51,2.38c0.01,0.05-0.01,0.09-0.05,0.12c0,0-1.29,0.84-1.34,0.87c0.02,0.06,0.28,1.29,0.3,1.39
			c0.1-0.06,5.3-3.45,5.35-3.48C139.75,502.84,139.47,501.49,139.46,501.43z M138.37,502.15L138.37,502.15
			c0.01,0.05-0.01,0.09-0.05,0.12l-1.97,1.29c-0.03,0.02-0.07,0.03-0.11,0.01c-0.03-0.02-0.06-0.04-0.06-0.08l-0.35-1.65
			c-0.01-0.04,0.01-0.08,0.04-0.11c0.02-0.03,0.06-0.04,0.09-0.04l2.34,0.37C138.32,502.07,138.36,502.1,138.37,502.15z"/>
		<path class="st7" d="M136.06,508.9L136.06,508.9L136.06,508.9L136.06,508.9v-0.09l0.06-0.06l1.57-0.63
			c0.05-0.01,0.09-0.01,0.12,0.01l0.03,0.04c0,0,0.71,1.79,0.75,1.87c0.06-0.03,0.59-0.23,0.64-0.26c-0.08-0.21-0.74-1.85-0.74-1.85
			l0-0.08l0.06-0.06l1.41-0.56c0.04-0.02,0.08-0.01,0.11,0.02l0.04,0.03c0,0,0.88,2.21,0.9,2.3c0.07-0.03,0.68-0.27,0.75-0.29
			c-0.03-0.08-1.46-3.64-1.49-3.71c-0.08,0.03-5.45,2.18-5.53,2.21c0.03,0.08,0.78,1.95,0.78,1.95s0.75,1.87,0.77,1.95
			c0.07-0.03,0.67-0.27,0.74-0.3C137.02,511.29,136.06,508.9,136.06,508.9z"/>
		<path class="st7" d="M141.06,514.9c-0.07,0.05-1.61,1.04-1.61,1.04c-0.04,0.02-0.09,0.03-0.13,0l-0.03-0.03l0-0.01
			c-0.4-0.62-0.53-1.21-0.39-1.76c0.14-0.54,0.53-1.03,1.15-1.43c0.55-0.35,1.08-0.51,1.58-0.48c0.32,0.03,0.6,0.13,0.86,0.31
			c0.24,0.16,0.45,0.39,0.63,0.68c0.17,0.26,0.31,0.54,0.43,0.85c0,0,0.2,0.69,0.23,0.78c0.09-0.05,0.73-0.47,0.79-0.5
			c-0.23-0.59-0.56-1.22-0.98-1.87c-0.3-0.46-0.64-0.82-1.02-1.09c-0.3-0.21-0.62-0.35-0.96-0.43c-0.78-0.2-1.6-0.03-2.41,0.51
			c-0.83,0.53-1.32,1.2-1.47,2c-0.14,0.77,0.06,1.59,0.59,2.42c0.43,0.64,0.88,1.18,1.38,1.61c0.05-0.03,2.08-1.34,2.14-1.39
			C141.8,516.02,141.12,514.96,141.06,514.9z"/>
		<path class="st7" d="M145.71,521.66c0,0,2.82-2.44,2.88-2.5c-0.05-0.06-0.74-0.85-0.79-0.91c-0.18,0.16-2.74,2.38-2.74,2.38
			c-0.46,0.39-0.83,0.59-1.15,0.62c-0.24,0.02-0.46-0.05-0.67-0.2l-0.24-0.22c-0.3-0.35-0.39-0.69-0.28-1.03
			c0.12-0.31,0.41-0.68,0.88-1.09c0,0,2.56-2.21,2.63-2.27c-0.06-0.06-0.88-1.02-0.94-1.08c-0.32,0.28-2.88,2.5-2.88,2.5
			c-0.59,0.51-0.87,1.08-0.85,1.71c0.02,0.57,0.29,1.16,0.81,1.75c0.21,0.24,0.42,0.45,0.64,0.6c0.33,0.24,0.68,0.38,1.02,0.41
			C144.57,522.39,145.13,522.16,145.71,521.66z"/>
		<path class="st7" d="M153.77,527.33c0,0,1.97-3.16,2.01-3.23c-0.06-0.04-0.95-0.6-1.02-0.64c-0.13,0.21-1.91,3.08-1.91,3.08
			c-0.32,0.5-0.62,0.81-0.93,0.93c-0.3,0.12-0.64,0.09-0.99-0.14c-0.38-0.24-0.57-0.54-0.56-0.89c0.01-0.34,0.18-0.77,0.52-1.31
			c0,0,1.8-2.87,1.84-2.94c-0.07-0.04-1.14-0.71-1.21-0.75c-0.22,0.36-2,3.21-2.02,3.23c-0.41,0.66-0.51,1.29-0.32,1.89
			c0.2,0.53,0.62,1.01,1.29,1.44l0,0c0.7,0.43,1.33,0.59,1.89,0.48C152.88,528.36,153.36,527.98,153.77,527.33z"/>
		<path class="st7" d="M160.44,526.17c-0.1,0.22-1.41,3.31-1.41,3.31c-0.02,0.04-0.11,0.16-0.16,0.14
			c-0.04-0.01-0.05-0.16-0.05-0.16s-0.97-4.33-0.98-4.38c-0.03-0.02-1.04-0.44-1.11-0.46c-0.03,0.08-1.15,2.74-1.15,2.74
			s-1.12,2.66-1.15,2.74c0.07,0.04,0.86,0.37,0.93,0.4c0.09-0.22,1.4-3.31,1.4-3.31c0.02-0.05,0.09-0.15,0.14-0.15
			c0.05,0,0.07,0.17,0.07,0.17s0.97,4.35,0.98,4.39c0.04,0.01,1.02,0.43,1.1,0.47c0.03-0.08,2.27-5.42,2.3-5.49
			C161.29,526.53,160.49,526.2,160.44,526.17z"/>
		<path class="st7" d="M162.35,526.91c-0.02,0.08-0.72,2.89-0.72,2.89s-0.69,2.81-0.72,2.89c0.08,0.02,1.31,0.32,1.39,0.34
			c0.02-0.09,1.41-5.7,1.43-5.78C163.66,527.23,162.43,526.93,162.35,526.91z"/>
		<path class="st7" d="M169.53,527.83c-0.14,0.29-1.98,4.28-1.98,4.28c-0.01,0.04-0.06,0.07-0.11,0.07l-0.03,0l-0.07-0.09
			c0,0-1.17-4.5-1.2-4.56c-0.05-0.01-1.38-0.13-1.5-0.14c0.03,0.12,1.6,6.07,1.62,6.12c0.05,0.01,1.42,0.13,1.48,0.14
			c0.02-0.06,2.58-5.63,2.63-5.74C170.28,527.9,169.58,527.84,169.53,527.83z"/>
		<path class="st7" d="M174.91,530.1c-0.23,0.02-1.99,0.19-1.99,0.19s-0.05-0.01-0.08-0.02v0l-0.04-0.08l-0.15-1.5
			c0-0.06,0.04-0.12,0.1-0.12c0,0,2.36-0.23,2.45-0.23c0-0.07-0.07-0.73-0.07-0.79c-0.08,0.01-3.9,0.38-3.98,0.38
			c0.01,0.09,0.29,2.96,0.29,2.96s0.28,2.88,0.28,2.96c0.08,0,4.1-0.39,4.18-0.4c0-0.08-0.06-0.73-0.07-0.8
			c-0.23,0.02-2.65,0.26-2.65,0.26s-0.05-0.01-0.08-0.02c0,0,0,0-0.01,0l-0.04-0.08l-0.16-1.69c-0.01-0.07,0.04-0.12,0.1-0.13
			c0,0,1.91-0.18,1.98-0.19C174.96,530.73,174.91,530.17,174.91,530.1z"/>
		<path class="st7" d="M181.01,528.54c0.11-0.35,0.13-0.69,0.04-1.02c-0.12-0.46-0.36-0.76-0.78-0.94v0
			c-0.33-0.14-0.7-0.16-1.11-0.04c0,0-2.66,0.69-2.73,0.71c0.02,0.08,1.48,5.67,1.5,5.76c0.09-0.02,1.19-0.31,1.28-0.33
			c-0.06-0.22-0.6-2.28-0.6-2.28l0.01-0.09l0.08-0.06l0.56-0.15l0.08,0.01l0.02,0.01c0,0,1.84,1.97,1.88,2.01
			c0.05-0.01,1.51-0.39,1.65-0.43c-0.12-0.1-2.48-2.14-2.48-2.14c-0.03-0.02-0.04-0.05-0.04-0.09c0.01-0.03,0.02-0.07,0.04-0.09
			C180.69,529.17,180.88,528.88,181.01,528.54z M179.05,529.44l-0.54,0.13l-0.09-0.01l-0.05-0.07l-0.45-1.71l0.01-0.09l0.07-0.05
			l0.48-0.13c0.38-0.09,0.66-0.09,0.86,0.01c0.18,0.09,0.3,0.26,0.36,0.51c0.08,0.28,0.07,0.55-0.03,0.81
			C179.56,529.17,179.35,529.36,179.05,529.44z"/>
		<path class="st7" d="M186.19,527.04c-0.2-0.04-0.74-0.09-1.57-0.11c-0.3-0.01-0.54-0.05-0.71-0.11c-0.19-0.07-0.33-0.18-0.4-0.31
			c-0.1-0.2-0.07-0.41,0.08-0.62c0.11-0.14,0.26-0.27,0.46-0.37c0.22-0.11,0.48-0.2,0.75-0.26c0,0,0.59-0.11,0.69-0.13
			c-0.04-0.09-0.38-0.76-0.41-0.82c-0.1,0.03-0.82,0.26-0.82,0.26l-0.8,0.35c-0.52,0.26-0.9,0.59-1.12,0.98
			c-0.25,0.46-0.27,0.91-0.02,1.4c0.23,0.47,0.64,0.77,1.21,0.9c0.15,0.03,0.66,0.07,1.52,0.13c0.6,0.04,0.96,0.19,1.1,0.47
			c0.13,0.27,0.1,0.53-0.09,0.77c-0.13,0.17-0.32,0.32-0.58,0.45c-0.25,0.13-0.53,0.23-0.81,0.3c0,0-0.63,0.1-0.73,0.11
			c0.04,0.1,0.4,0.81,0.43,0.88c0.17-0.06,0.86-0.31,0.86-0.31l0.83-0.38c0.83-0.41,1.34-0.92,1.5-1.5
			c0.11-0.38,0.08-0.76-0.12-1.15c-0.21-0.42-0.54-0.7-0.99-0.86C186.37,527.08,186.28,527.06,186.19,527.04z"/>
		<path class="st7" d="M186.57,523.55c0.05,0.07,3.04,5.02,3.09,5.09c0.07-0.04,1.16-0.69,1.22-0.74c-0.04-0.07-3.04-5.02-3.09-5.09
			C187.73,522.85,186.65,523.5,186.57,523.55z"/>
		<path class="st7" d="M189.06,522.6c0,0,0.21,0.25,0.25,0.31c0.18-0.15,1.63-1.35,1.63-1.35c0.03-0.03,0.07-0.04,0.11-0.02
			l0.04,0.02c0,0,3.17,3.82,3.22,3.89c0.06-0.05,1.04-0.87,1.1-0.91c-0.05-0.06-3.21-3.88-3.21-3.88l-0.02-0.09l0.04-0.08
			c0,0,1.58-1.3,1.64-1.35c-0.05-0.05-0.47-0.57-0.52-0.62c-0.06,0.06-4.47,3.71-4.53,3.77C188.85,522.34,189.06,522.6,189.06,522.6
			z"/>
		<path class="st7" d="M197.62,516.88c0.02,0.04,0.01,0.08-0.01,0.12c-0.03,0.03-0.07,0.05-0.11,0.04c0,0-2.68-0.37-2.73-0.37
			c-0.03,0.04-0.85,1.08-0.94,1.19c0.77,0.11,3.86,0.54,3.96,0.57h0c0,0,1.89,1.48,1.95,1.54c0.05-0.06,0.84-1.06,0.88-1.12
			c-0.61-0.48-1.96-1.54-1.99-1.58c0,0-1.38-3.55-1.43-3.69c-0.08,0.1-0.56,0.7-0.58,0.74
			C196.63,514.35,197.62,516.88,197.62,516.88z"/>
		<path class="st7" d="M199.39,510.96c0,0,0.02,0.01,0.03,0.01c0.05-0.1,0.33-0.63,0.33-0.63l0.07-0.06c0,0,0.05,0,0.07,0.01h0.01
			c0,0,4.24,2.15,4.31,2.18c0.04-0.06,0.54-1.07,0.57-1.13c-0.06-0.03-5.04-2.55-5.12-2.59c-0.03,0.08-0.72,1.89-0.75,1.96
			C198.97,510.74,199.39,510.96,199.39,510.96z"/>
		<path class="st7" d="M200.62,505.22c-0.22,0.69-0.19,1.29,0.14,1.82c0.26,0.42,0.6,0.71,1.04,0.86c0.46,0.16,0.91,0.13,1.32-0.08
			c0.41-0.21,0.7-0.55,0.86-1.01c0.08-0.24,0.11-0.46,0.09-0.72c-0.01-0.25-0.08-0.45-0.23-0.64l-0.32-0.39l0.48,0.16
			c0.42,0.14,0.78,0.37,1.07,0.67c0.41,0.45,0.53,0.96,0.34,1.51c-0.08,0.24-0.2,0.48-0.33,0.7c0,0-0.34,0.42-0.4,0.5
			c0.1,0.03,0.69,0.23,0.74,0.25c0.29-0.48,0.53-0.98,0.7-1.46c0.28-0.84,0.21-1.57-0.22-2.22c-0.39-0.59-0.99-1.02-1.79-1.3
			c-0.83-0.28-1.57-0.31-2.18-0.07C201.29,504.04,200.86,504.5,200.62,505.22z M202.72,504.87c0.28,0.1,0.5,0.26,0.66,0.47
			c0.19,0.25,0.24,0.52,0.14,0.79c-0.11,0.31-0.32,0.5-0.64,0.55c-0.25,0.06-0.52,0.03-0.83-0.07c-0.3-0.1-0.53-0.26-0.68-0.46
			c-0.17-0.22-0.2-0.48-0.1-0.78c0.1-0.3,0.31-0.48,0.62-0.56C202.14,504.75,202.43,504.77,202.72,504.87z"/>
		<path class="st7" d="M204.59,499.51c-0.36,0.41-0.6,0.95-0.72,1.59l-0.05,0.29l-0.04,0.07l-0.08,0.02l-0.94-0.33
			c-0.05-0.02-0.08-0.07-0.07-0.12c0,0,0.44-2.43,0.46-2.51c-0.07-0.02-0.87-0.16-0.93-0.17c-0.01,0.07-0.28,1.57-0.28,1.57
			s-0.32,1.78-0.34,1.87c0.08,0.01,2.69,0.48,2.77,0.5c0,0,0.03-0.3,0.03-0.31c0.1-0.54,0.25-0.97,0.44-1.22
			c0.28-0.39,0.66-0.54,1.14-0.46c0.3,0.06,0.53,0.2,0.69,0.42c0.15,0.23,0.19,0.49,0.14,0.78c-0.02,0.13-0.09,0.45-0.24,0.75
			c0,0-0.22,0.42-0.27,0.5c0.09,0.02,0.69,0.12,0.74,0.13c0.03-0.09,0.28-0.68,0.28-0.68l0.18-0.72c0.13-0.73,0.06-1.34-0.21-1.81
			c-0.23-0.38-0.57-0.63-1.02-0.74c-0.03-0.01-0.07-0.01-0.11-0.02C205.54,498.81,205.02,499,204.59,499.51z"/>
		<path class="st7" d="M204.59,493.29L204.59,493.29c-0.3,0.38-0.43,0.78-0.37,1.25c0.01,0.26,0.1,0.5,0.21,0.73
			c0.11,0.22,0.3,0.37,0.44,0.47c0.15,0.09,0.31,0.16,0.31,0.16l-0.03,0.04c-0.08,0.05-0.29,0.1-0.29,0.1
			c-0.44,0.04-0.86-0.01-1.26-0.17c-0.57-0.24-0.89-0.65-0.95-1.23c-0.03-0.25-0.02-0.52,0.02-0.78c0,0,0.13-0.52,0.16-0.62
			c-0.1,0-0.72,0.06-0.78,0.07c-0.07,0.56-0.08,1.1-0.02,1.62c0.09,0.9,0.46,1.57,1.13,1.97c0.55,0.33,1.34,0.47,2.16,0.39
			c0.87-0.08,1.55-0.37,2.01-0.83c0.47-0.47,0.66-1.07,0.59-1.83c-0.07-0.74-0.34-1.24-0.87-1.6c-0.4-0.28-0.83-0.4-1.28-0.35
			C205.28,492.72,204.88,492.93,204.59,493.29z M206.84,494.09L206.84,494.09c0.26,0.13,0.4,0.36,0.43,0.68
			c0.03,0.31-0.08,0.56-0.34,0.77c-0.2,0.16-0.47,0.25-0.77,0.28c-0.29,0.03-0.56-0.02-0.81-0.16c-0.26-0.15-0.4-0.37-0.43-0.66
			c-0.03-0.33,0.09-0.59,0.35-0.78c0.2-0.14,0.47-0.23,0.78-0.27C206.36,493.93,206.63,493.97,206.84,494.09z"/>
		<path class="st7" d="M136.44,485.44c-0.05,0.72,0.48,1.33,1.19,1.39c0.71,0.05,1.34-0.48,1.39-1.19c0.05-0.71-0.48-1.33-1.19-1.39
			C137.12,484.2,136.5,484.73,136.44,485.44z"/>
		<path class="st7" d="M204.51,485.45c0.05,0.71-0.48,1.33-1.19,1.39c-0.71,0.05-1.33-0.48-1.39-1.19
			c-0.05-0.71,0.48-1.33,1.19-1.39C203.84,484.2,204.46,484.73,204.51,485.45z"/>
		<path class="st7" d="M142.82,473.19l-0.48,0.67l-1.63-1.18l-0.74,1.01l3.16,2.29c-0.03,0.11-0.07,0.24-0.14,0.4
			c-0.07,0.16-0.17,0.32-0.31,0.51l-1.02,1.4l-2.51-1.82l1.21-1.66l-0.56-0.4l-1.94,2.67l2.99,2.17c0.19,0.14,0.4,0.19,0.6,0.14
			c0.21-0.05,0.4-0.19,0.57-0.42l1.18-1.63c0.15-0.19,0.24-0.37,0.3-0.54c0.06-0.17,0.1-0.32,0.11-0.46l2.36,1.71l0.61-0.85
			c0,0-0.23-0.42-0.77-0.8l-2.94-2.13l0.49-0.66l3.82,2.78l0.62-0.85c0,0-0.24-0.42-0.77-0.8l-5.12-3.72l-0.73,1.01L142.82,473.19z"
			/>
		<path class="st7" d="M157.24,464.52c0.02-0.13,0-0.32-0.05-0.56c-0.05-0.24-0.13-0.45-0.22-0.64l-1.05-2.06l-5.49,2.79l0.31,0.61
			l4.37-2.23l0.76,1.49c0.1,0.18,0.18,0.37,0.25,0.56c0.08,0.19,0.12,0.37,0.14,0.53l-4.81,2.46l0.3,0.61l2.77-1.41l1.4,2.74
			l0.93-0.48c0,0-0.02-0.48-0.31-1.06l-0.91-1.77l1.97-1.01l0.49-0.25c0.31-0.16,0.46-0.35,0.46-0.35l-0.26-0.53L157.24,464.52z"/>
		<path class="st7" d="M172.87,460.39h-0.82v-2.02h-1.24v3.91c-0.11,0.04-0.23,0.08-0.4,0.11c-0.18,0.04-0.36,0.05-0.59,0.05h-1.73
			v-3.1l2.05,0v-0.69h-3.3v3.69c0,0.25,0.08,0.44,0.25,0.59c0.16,0.14,0.39,0.21,0.67,0.21l2.01,0c0.24,0,0.44-0.03,0.61-0.08
			c0.17-0.05,0.31-0.11,0.43-0.18v2.92h1.04c0,0,0.2-0.44,0.2-1.09v-3.63h0.82v4.72h1.05c0,0,0.21-0.44,0.21-1.09v-6.33h-1.25
			V460.39z"/>
		<path class="st7" d="M186.11,465.83c0.48-0.15,0.88-0.47,1.09-0.91c0.22-0.44,0.25-0.94,0.1-1.42c-0.02-0.08-0.06-0.15-0.09-0.22
			l1,0.51l0.3-0.59l-1.62-0.83l0.27-0.55l-1.1-0.57l-0.28,0.55l-1.63-0.83l-0.3,0.59l1,0.5c-0.56,0.11-1.06,0.44-1.33,0.97
			c-0.22,0.44-0.25,0.94-0.1,1.42c0.18,0.53,0.57,0.96,1.08,1.22C185.01,465.94,185.58,466,186.11,465.83z M184.46,464.58
			c-0.05-0.31,0.01-0.68,0.19-1.02c0.17-0.34,0.43-0.61,0.71-0.75c0.22-0.1,0.44-0.11,0.61-0.02c0.17,0.09,0.29,0.27,0.33,0.51
			c0.06,0.3-0.01,0.67-0.18,1.01c-0.32,0.63-0.92,0.98-1.32,0.77C184.63,465,184.51,464.82,184.46,464.58z M189.28,465.54l0.92-1.8
			l-1.11-0.57l-2,3.93l1.1,0.56l0.77-1.51l0.49,0.25c0.31,0.16,0.56,0.17,0.56,0.17l0.27-0.52L189.28,465.54z M182.67,466.06
			l3.85,1.96l-0.88,1.72l1.01,0.52c0,0,0.38-0.3,0.68-0.88l0.69-1.36l-5.03-2.56L182.67,466.06z"/>
		<path class="st7" d="M199.9,477.07c-0.45,0.33-0.83,0.58-1.15,0.76c-0.31,0.18-0.62,0.27-0.92,0.29l0.65,0.89
			c0.28-0.01,0.6-0.09,0.94-0.23c0.36-0.14,0.73-0.37,1.14-0.66l2.26-1.64l-3.4-4.67l-0.56,0.4l2.67,3.67L199.9,477.07z"/>
		<path class="st7" d="M198.63,480.07l-0.61-0.84l-0.63-0.88l-0.16-0.23l2.41-1.75l-0.73-1.01l-2.41,1.75l-0.32-0.43l-0.11-0.17
			l2.42-1.75l-0.73-1.01l-2.42,1.76l-0.76-1.05l-0.56,0.4l1.62,2.22l0,0l1.89,2.59l0.32,0.44c0,0.01,0.01,0.02,0.01,0.03
			c0.2,0.25,0.41,0.38,0.41,0.38l0.47-0.34L198.63,480.07z"/>
	</g>
	<g class="st6">
		<path class="st7" d="M178.44,522.27c0.14,0.01,0.41-0.11,0.41-0.31c0.04-1.59,0.88-8.33,9.24-15.74
			c4.82-4.26,8.18-7.99,9.16-15.08c0.05-0.43-0.03-0.61-0.52-0.64c-1.63-0.08-5.76-0.6-9.31-3.31c1.73,4.02,0.18,10.74-2.15,14.25
			c-8.15,10.92-25.25,8.5-25.25,8.5l0.02,0.06c0.18,0.16,0.37,0.29,0.54,0.46C165.73,515.53,171.8,521.44,178.44,522.27z"/>
		<path class="st7" d="M186.85,487.43c1.62,3.76,0.19,10.21-2.1,13.66c-7.81,10.47-24.47,8.25-24.64,8.23l-2.19-0.31l1.71,1.46
			l0.22,0.19l0.28,0.24c5.03,4.96,11.28,11.13,18.22,12l0.14,0.02l-0.13-0.02l0.79-0.27l0.31-0.65c0.02-0.76,0.41-7.65,9.03-15.29
			c4.5-3.98,8.32-7.89,9.37-15.47c0-0.01-0.21-0.98-0.21-0.98l-0.9-0.37c-1.2-0.06-5.37-0.45-8.96-3.18l-1.9-1.45L186.85,487.43z
			 M185.78,501.81c1.76-2.65,3.02-6.77,3.02-10.45c0-1-0.13-1.94-0.33-2.83c3.43,2.06,6.95,2.52,8.15,2.58
			c-1.04,7.16-4.5,10.73-8.93,14.64c-8.31,7.36-9.31,13.97-9.43,15.84c-6.1-0.89-11.81-6.25-16.5-10.87
			C166.41,511.03,178.97,510.93,185.78,501.81z"/>
		<path class="st7" d="M165.04,469.71c-0.48,1.45-1.89,5.22-4.7,8.83c-2,2.54-3.7,4.47-4.9,5.58c-7.06,6.51-10.28,10.7-12.33,16.01
			c-0.16,0.35-0.16,0.75,0,1.08c0.15,0.29,0.41,0.49,0.74,0.57c1.75,0.42,6.36,1.77,11.13,5.14c0,0,4.78,3.61,4.78,3.61l0.16,0.03
			c0.16,0.02,16.2,2.32,25.29-8.85c2.63-3.7,3.75-9.56,2.82-14.63l-0.05-0.26l-0.21-0.15c-2.33-1.6-4.33-4.1-6.09-6.3
			c-2.24-2.97-8.21-10.08-15.01-11.5C165.91,468.69,165.25,469.03,165.04,469.71z M156.29,485.04c1.25-1.15,2.99-3.13,5.03-5.73
			c2.93-3.77,4.41-7.7,4.91-9.22l0,0c0-0.01,0.18,0,0.18,0c4.44,0.93,9.78,5.06,14.29,11.05c1.77,2.21,3.76,4.67,6.13,6.37
			c0.18,1.03,0.28,2.09,0.28,3.16c0,3.8-1.05,7.71-2.88,10.28c-8.26,10.15-22.66,8.55-23.96,8.39c-0.26-0.2-4.56-3.44-4.56-3.44
			c-4.85-3.43-9.51-4.83-11.42-5.29C146.29,495.42,149.44,491.36,156.29,485.04z"/>
		<path class="st7" d="M161.05,479.59c-0.17,0.01-0.32,0.12-0.35,0.32c-0.13,1.83-1.4,13.95-5.24,25.82
			c-0.07,0.21-0.01,0.38,0.24,0.38c4.14,0.05,25.38,0.56,25.33-14.43C180.99,480.66,165.52,479.56,161.05,479.59z"/>
	</g>
</g>
</svg>
