<?xml version="1.0" encoding="utf-8"?>
<!-- Generator: Adobe Illustrator 27.0.1, SVG Export Plug-In . SVG Version: 6.00 Build 0)  -->
<svg version="1.1" id="레이어_1" xmlns="http://www.w3.org/2000/svg" xmlns:xlink="http://www.w3.org/1999/xlink" x="0px"
	 y="0px" viewBox="0 0 160 150" style="enable-background:new 0 0 160 150;" xml:space="preserve">
<style type="text/css">
	.st0{fill:#2C5994;stroke:#2C5994;stroke-width:3;stroke-miterlimit:10;}
	.st1{fill:#FFF8EE;}
	.st2{font-family:'H2gtrE';}
	.st3{font-size:12px;}
</style>
<path class="st0" d="M17.02,11.69c-2.2,0.83-6.63,11.77-6.63,11.77l-1.71,4.49l-1.71,1.28l1.28,5.99l-1.28,3.42l6.42,8.13l1.71,7.49
	l19.26,9.84l4.49,10.7l-3.64,4.71l1.28,15.41l6.85,11.55l-1.5,2.35l0.21,6.42l-3.85,8.56l-1.71,1.93l0.21,4.28l4.71,1.5l-4.07,8.13
	l3.42,3.42l-0.86,1.5h12.41l16.26-11.34l3.21-0.64l3.64-0.86c0,0,3.42-10.91,14.34-8.77l9.41-3.42c0,0,2.35-3,2.57-8.13l8.13-11.77
	v-7.06l6.63-4.07V78.12c0,0,2.21-6.1,17.05-4.81c0,0,2.85-3.42,10.56-2.14l8.99-1.28v-1.71l-4.71-1.71l2.35-6.42l2.35-3.21
	c0,0-2.35-8.13-5.78-5.99l-2.14-5.99c0,0,2.35-3.21,5.14-10.06l-0.43-4.07c0,0-5.99-2.78-9.63-1.93s-2.35,0.21-2.35,0.21l-1.71-5.35
	c0,0-3.85-8.77-4.49-8.77s-4.49-3.21-8.56-2.14s-1.07-1.07-1.07-1.07l-3.42-2.35l-3.42,2.14l-3,4.28l-1.5,1.5c0,0-6.85-1.71-7.92,0
	s-1.93,0.21-1.93,0.21l-4.28-0.43c0,0-0.64-2.57-4.07-1.93l-7.06-5.78l-0.43-2.35l-9.2,5.35c0,0-6.63,3.85-6.2,5.56l-8.99,1.93
	c0,0-5.56-8.13-12.62-2.78C48.04,17.04,22.15,9.76,17.02,11.69z"/>
<text transform="matrix(1 0 0 1 64.9009 65)" class="st1 st2 st3">하양</text>
</svg>
